<svg xmlns="http://www.w3.org/2000/svg" width="535.66" height="186.91" viewBox="0 0 535.66 186.91"><title>Curtis Property Co - Black-01</title><circle cx="74.93" cy="93.18" r="8.58" style="fill:#1d1d1b"/><path d="M176.73,120.15v-5.88h-5.2v3.13l-12.38-6.54-25.48,13.46h0a44.68,44.68,0,1,1-.17-38h51.19a93.3,93.3,0,1,0,0,38h0Z" transform="translate(0 -12)" style="fill:#1d1d1b"/><path d="M303.16,44.35a14.23,14.23,0,0,1-3.46,8.13,10.2,10.2,0,0,1-7.89,3.09,12.82,12.82,0,0,1-6.31-1.44,12.09,12.09,0,0,1-4.21-3.82A16.71,16.71,0,0,1,279,45a25.55,25.55,0,0,1-.74-6.14,27.35,27.35,0,0,1,.74-6.37,17,17,0,0,1,2.34-5.51,12,12,0,0,1,4.21-3.85,12.82,12.82,0,0,1,6.31-1.44A11.58,11.58,0,0,1,299,24.16a11.12,11.12,0,0,1,2.45,2.77,8.79,8.79,0,0,1,1.26,3.47H313.4A20.33,20.33,0,0,0,311,22.69a18.93,18.93,0,0,0-4.81-5.64,21.19,21.19,0,0,0-6.59-3.47,26.86,26.86,0,0,0-18.15.84A22.31,22.31,0,0,0,273.72,20a25,25,0,0,0-4.83,8.38,28.47,28.47,0,0,0-1.23,4.85,33.35,33.35,0,0,0-.45,5.55,31.92,31.92,0,0,0,.45,5.43A27.81,27.81,0,0,0,268.89,49a24.36,24.36,0,0,0,4.83,8.24,22.17,22.17,0,0,0,7.75,5.5,25.7,25.7,0,0,0,10.34,2,24.77,24.77,0,0,0,8.48-1.4A19.74,19.74,0,0,0,307,59.28a20.16,20.16,0,0,0,4.63-6.45,25.61,25.61,0,0,0,2.17-8.48Z" transform="translate(0 -12)" style="fill:#1d1d1b"/><path d="M320.53,60.51a9.38,9.38,0,0,0,4,3,17.4,17.4,0,0,0,6.55,1.05,14.53,14.53,0,0,0,6.17-1.4,11.25,11.25,0,0,0,4.91-4.56h.21v5.05h9.46V27.39h-9.95v19q0,5.53-1.83,8t-5.88,2.42q-3.58,0-5-2.21c-.94-1.47-1.4-3.7-1.4-6.69V27.39h-10V49.68a29,29,0,0,0,.6,6.13A11.74,11.74,0,0,0,320.53,60.51Z" transform="translate(0 -12)" style="fill:#1d1d1b"/><path d="M377.69,35.77q1,.1,1.68.24V26.76a7.88,7.88,0,0,0-2.17-.35,11.75,11.75,0,0,0-3.65.56,13.12,13.12,0,0,0-3.29,1.58A12,12,0,0,0,367.53,31a12.25,12.25,0,0,0-1.9,3.12h-.14V27.39H356V63.63h10V47.3a20.43,20.43,0,0,1,.49-4.56,10,10,0,0,1,1.65-3.68,8.06,8.06,0,0,1,3.05-2.49,10.7,10.7,0,0,1,4.63-.91A18,18,0,0,1,377.69,35.77Z" transform="translate(0 -12)" style="fill:#1d1d1b"/><path d="M386,62.44a10.43,10.43,0,0,0,3.64,1.22A29.1,29.1,0,0,0,394,64c1,0,2,0,3-.07a24.53,24.53,0,0,0,2.8-.28V55.92q-.71.13-1.47.21c-.52,0-1.05.07-1.61.07-1.69,0-2.81-.28-3.37-.84s-.84-1.68-.84-3.37V34.05h7.29V27.39h-7.29V16.52h-9.95V55.43a9.21,9.21,0,0,0,.91,4.41A6.57,6.57,0,0,0,386,62.44Z" transform="translate(0 -12)" style="fill:#1d1d1b"/><rect x="403.45" y="15.39" width="9.95" height="36.24" style="fill:#1d1d1b"/><path d="M446.1,44.88A14.29,14.29,0,0,0,442.42,43a42.27,42.27,0,0,0-4.25-1.19c-1.4-.33-2.78-.63-4.13-.91a31.61,31.61,0,0,1-3.61-1,7.38,7.38,0,0,1-2.56-1.37,3,3,0,0,1-.42-4,3.63,3.63,0,0,1,1.37-1,5.82,5.82,0,0,1,1.78-.46,17.36,17.36,0,0,1,1.83-.1,10,10,0,0,1,4.62,1A4.37,4.37,0,0,1,439.23,38h9.46A11.9,11.9,0,0,0,447,32.4a11.39,11.39,0,0,0-3.61-3.54A14.94,14.94,0,0,0,438.42,27a28.28,28.28,0,0,0-5.71-.56,31.14,31.14,0,0,0-5.75.52,15.75,15.75,0,0,0-5,1.83,10,10,0,0,0-3.61,3.54A10.89,10.89,0,0,0,416.94,38a7.67,7.67,0,0,0,1,4,8.58,8.58,0,0,0,2.59,2.74,14.56,14.56,0,0,0,3.68,1.75c1.38.44,2.79.83,4.24,1.16A59.84,59.84,0,0,1,436.74,50c2,.75,3,1.87,3,3.36a3.68,3.68,0,0,1-.63,2.21,4.72,4.72,0,0,1-1.58,1.4,7.41,7.41,0,0,1-2.1.78,10.89,10.89,0,0,1-2.21.24,11.57,11.57,0,0,1-2.84-.35,7.32,7.32,0,0,1-2.42-1.09,5.9,5.9,0,0,1-1.72-1.89,5.49,5.49,0,0,1-.66-2.77h-9.47a12.35,12.35,0,0,0,1.65,6.07,12.16,12.16,0,0,0,3.86,3.89,16.23,16.23,0,0,0,5.36,2.1,30,30,0,0,0,6.17.63,30.68,30.68,0,0,0,6.06-.6,15.19,15.19,0,0,0,5.29-2.06A11,11,0,0,0,449.67,52a8.5,8.5,0,0,0-1-4.24A9.12,9.12,0,0,0,446.1,44.88Z" transform="translate(0 -12)" style="fill:#1d1d1b"/><path d="M303.84,85.05a14.85,14.85,0,0,0-5.36-3.61,20.88,20.88,0,0,0-8-1.37H267.92v50.05h11V112.18h11.57a20.88,20.88,0,0,0,8-1.37,14.85,14.85,0,0,0,5.36-3.61,13.83,13.83,0,0,0,3-5.15,19.24,19.24,0,0,0,0-11.88A13.87,13.87,0,0,0,303.84,85.05ZM296.34,100a6,6,0,0,1-2.14,2.28,8.41,8.41,0,0,1-3.08,1.09,23.9,23.9,0,0,1-3.65.28h-8.55v-15h8.55a22.68,22.68,0,0,1,3.65.29A8.22,8.22,0,0,1,294.2,90a6,6,0,0,1,2.14,2.28,9.58,9.58,0,0,1,0,7.71Z" transform="translate(0 -12)" style="fill:#1d1d1b"/><path d="M312.22,93.88v36.24h9.95V113.79a19.93,19.93,0,0,1,.49-4.56,10,10,0,0,1,1.65-3.68,8.06,8.06,0,0,1,3.05-2.49,10.69,10.69,0,0,1,4.62-.91,18,18,0,0,1,1.9.11q1,.1,1.68.24V93.25a7.93,7.93,0,0,0-2.17-.35,12,12,0,0,0-3.65.56A13.3,13.3,0,0,0,326.45,95a12.77,12.77,0,0,0-2.74,2.45,12.5,12.5,0,0,0-1.89,3.12h-.14V93.88Z" transform="translate(0 -12)" style="fill:#1d1d1b"/><path d="M368.08,98.12a16.81,16.81,0,0,0-5.92-3.85,21,21,0,0,0-7.74-1.37,20.65,20.65,0,0,0-7.71,1.37,16.56,16.56,0,0,0-9.68,9.88A22.21,22.21,0,0,0,335.7,112a22,22,0,0,0,1.33,7.85,17.06,17.06,0,0,0,3.79,6,16.53,16.53,0,0,0,5.89,3.82,21.06,21.06,0,0,0,7.71,1.33,21.38,21.38,0,0,0,7.74-1.33,16.48,16.48,0,0,0,5.92-3.82,17.06,17.06,0,0,0,3.79-6A22,22,0,0,0,373.2,112a22.21,22.21,0,0,0-1.33-7.89A17,17,0,0,0,368.08,98.12Zm-5.25,18.16a11.13,11.13,0,0,1-1.44,3.71,7.57,7.57,0,0,1-2.73,2.63,8.39,8.39,0,0,1-4.24,1,8.17,8.17,0,0,1-4.21-1,7.64,7.64,0,0,1-2.7-2.63,11.13,11.13,0,0,1-1.44-3.71,21.25,21.25,0,0,1-.42-4.24,21.8,21.8,0,0,1,.42-4.28,10.81,10.81,0,0,1,1.44-3.71,7.67,7.67,0,0,1,6.91-3.65,8.19,8.19,0,0,1,4.24,1,7.91,7.91,0,0,1,2.73,2.63,10.81,10.81,0,0,1,1.44,3.71,21.8,21.8,0,0,1,.42,4.28A21.25,21.25,0,0,1,362.83,116.28Z" transform="translate(0 -12)" style="fill:#1d1d1b"/><path d="M409.12,98.79A15.2,15.2,0,0,0,404,94.51a15.78,15.78,0,0,0-7.37-1.61,14.25,14.25,0,0,0-6.16,1.33,11,11,0,0,0-4.63,4.28h-.14V93.88h-9.46v48.93h9.95V125.63h.14a11.85,11.85,0,0,0,4.66,4,14.15,14.15,0,0,0,6.21,1.36,15,15,0,0,0,7-1.54,14.74,14.74,0,0,0,5-4.14,17.89,17.89,0,0,0,3-5.95,25.1,25.1,0,0,0,1-7,27.76,27.76,0,0,0-1-7.4A18.1,18.1,0,0,0,409.12,98.79Zm-6.38,17.59a10.68,10.68,0,0,1-1.43,3.68,8,8,0,0,1-2.67,2.56,8.11,8.11,0,0,1-10.86-2.56,10.92,10.92,0,0,1-1.47-3.68,19.67,19.67,0,0,1-.46-4.27,22.13,22.13,0,0,1,.42-4.35,10.81,10.81,0,0,1,1.44-3.71,8.06,8.06,0,0,1,2.66-2.63,7.67,7.67,0,0,1,4.1-1,7.51,7.51,0,0,1,4,1,8.27,8.27,0,0,1,2.7,2.66,11.58,11.58,0,0,1,1.51,3.75,20.39,20.39,0,0,1,.45,4.28A21.69,21.69,0,0,1,402.74,116.38Z" transform="translate(0 -12)" style="fill:#1d1d1b"/><path d="M448.13,99.49a16,16,0,0,0-5.64-4.8,17.26,17.26,0,0,0-8.06-1.79,18.82,18.82,0,0,0-7.54,1.47,17.54,17.54,0,0,0-9.64,10.1,21.06,21.06,0,0,0-1.33,7.57,22,22,0,0,0,1.3,7.71,17.56,17.56,0,0,0,3.68,6,16.19,16.19,0,0,0,5.82,3.89,20.69,20.69,0,0,0,7.71,1.36,19,19,0,0,0,10.51-2.8q4.35-2.8,6.45-9.32h-8.76A6.3,6.3,0,0,1,440,122.1a8.88,8.88,0,0,1-5.18,1.5q-4.21,0-6.45-2.17t-2.46-7H452a25.62,25.62,0,0,0-.7-8.06A19.88,19.88,0,0,0,448.13,99.49Zm-22.26,8.62a11.49,11.49,0,0,1,.46-2.38,7.28,7.28,0,0,1,3.86-4.52,8.61,8.61,0,0,1,4-.81,7,7,0,0,1,5.43,2,11.57,11.57,0,0,1,2.49,5.75Z" transform="translate(0 -12)" style="fill:#1d1d1b"/><path d="M473,93.46a13.54,13.54,0,0,0-3.3,1.58A12.72,12.72,0,0,0,467,97.49a12.21,12.21,0,0,0-1.89,3.12H465V93.88H455.5v36.24h10V113.79a19.93,19.93,0,0,1,.49-4.56,9.89,9.89,0,0,1,1.65-3.68,8,8,0,0,1,3-2.49,10.69,10.69,0,0,1,4.62-.91,17.69,17.69,0,0,1,1.89.11c.66.07,1.22.15,1.69.24V93.25a7.94,7.94,0,0,0-2.18-.35A12,12,0,0,0,473,93.46Z" transform="translate(0 -12)" style="fill:#1d1d1b"/><path d="M492,93.88V83H482v38.9a9.4,9.4,0,0,0,.91,4.42,6.54,6.54,0,0,0,2.49,2.59,10.35,10.35,0,0,0,3.65,1.23,29.13,29.13,0,0,0,4.38.31c1,0,2,0,3-.07a24.49,24.49,0,0,0,2.81-.28v-7.71a11.31,11.31,0,0,1-1.47.21c-.52,0-1.06.07-1.62.07q-2.52,0-3.36-.84t-.84-3.36V100.54h6.22l-2.48-6.66Z" transform="translate(0 -12)" style="fill:#1d1d1b"/><path d="M303.16,178.31a14.23,14.23,0,0,1-3.46,8.13,10.2,10.2,0,0,1-7.89,3.09,12.82,12.82,0,0,1-6.31-1.44,12.09,12.09,0,0,1-4.21-3.82,16.71,16.71,0,0,1-2.34-5.36,25.55,25.55,0,0,1-.74-6.14,27.35,27.35,0,0,1,.74-6.37,17,17,0,0,1,2.34-5.51A12,12,0,0,1,285.5,157a12.82,12.82,0,0,1,6.31-1.44,11.58,11.58,0,0,1,7.22,2.52,11.12,11.12,0,0,1,2.45,2.77,8.79,8.79,0,0,1,1.26,3.47H313.4a20.33,20.33,0,0,0-2.38-7.71,18.93,18.93,0,0,0-4.81-5.64,21.19,21.19,0,0,0-6.59-3.47,26.86,26.86,0,0,0-18.15.84,22.19,22.19,0,0,0-7.75,5.61,25,25,0,0,0-4.83,8.38,28.47,28.47,0,0,0-1.23,4.85v11a27.81,27.81,0,0,0,1.23,4.77,24.36,24.36,0,0,0,4.83,8.24,22.17,22.17,0,0,0,7.75,5.5,25.7,25.7,0,0,0,10.34,2,24.77,24.77,0,0,0,8.48-1.4,19.74,19.74,0,0,0,6.73-4.07,20.16,20.16,0,0,0,4.63-6.45,25.61,25.61,0,0,0,2.17-8.48Z" transform="translate(0 -12)" style="fill:#1d1d1b"/><path d="M267.21,172.77a31.92,31.92,0,0,0,.45,5.43v-11A33.35,33.35,0,0,0,267.21,172.77Z" transform="translate(0 -12)" style="fill:#1d1d1b"/><path d="M350.13,165.59a17,17,0,0,0-5.93-3.86,21,21,0,0,0-7.74-1.36,20.72,20.72,0,0,0-7.71,1.36,16.62,16.62,0,0,0-9.68,9.89,22.42,22.42,0,0,0-1.33,7.88,22.09,22.09,0,0,0,1.33,7.85,17,17,0,0,0,3.79,6,16.62,16.62,0,0,0,5.89,3.82,21.35,21.35,0,0,0,7.71,1.33,21.6,21.6,0,0,0,7.74-1.33,16.52,16.52,0,0,0,5.93-3.82,17.14,17.14,0,0,0,3.78-6,21.87,21.87,0,0,0,1.33-7.85,22.2,22.2,0,0,0-1.33-7.88A17.08,17.08,0,0,0,350.13,165.59Zm-5.26,18.15a11.27,11.27,0,0,1-1.44,3.72,7.57,7.57,0,0,1-2.73,2.63,8.5,8.5,0,0,1-4.24,1,8.3,8.3,0,0,1-4.21-1,7.73,7.73,0,0,1-2.7-2.63,11.48,11.48,0,0,1-1.43-3.72,21.17,21.17,0,0,1-.42-4.24,21.77,21.77,0,0,1,.42-4.27,11.14,11.14,0,0,1,1.43-3.72,8.19,8.19,0,0,1,2.7-2.63,8.1,8.1,0,0,1,4.21-1,8.29,8.29,0,0,1,4.24,1,8,8,0,0,1,2.73,2.63,10.94,10.94,0,0,1,1.44,3.72,21.77,21.77,0,0,1,.42,4.27A21.17,21.17,0,0,1,344.87,183.74Z" transform="translate(0 -12)" style="fill:#1d1d1b"/><path d="M525.35,93.88l-7.92,24.82h-.14l-8.2-24.82H498.51l.77,2.07,2,5.41,9.9,26.52a6,6,0,0,1,.42,2.24,5,5,0,0,1-.94,2.95,3.89,3.89,0,0,1-2.91,1.54,22.4,22.4,0,0,1-2.95-.07l-2.87-.28v8.2l3.05.24c1,.07,2,.11,3.05.11q5.11,0,8-1.89a12.38,12.38,0,0,0,4.49-6.31l15.14-40.73Z" transform="translate(0 -12)" style="fill:#1d1d1b"/><circle cx="365.93" cy="181.18" r="5.73" style="fill:#1d1d1b"/><line x1="226.16" y1="0.39" x2="226.16" y2="186.39" style="stroke:#000;stroke-miterlimit:10;stroke-width:3px"/></svg>